name ./resultDataOpenSim/trcMotMarkerGrf/sub06/grf-03-08.mot
datacolumns 19
datarows 10
range 1.53600000 1.57200000
endheader

                time	     ground_force_vx	     ground_force_vy	     ground_force_vz	     ground_force_px	     ground_force_py	     ground_force_pz	   l_ground_force_vx	   l_ground_force_vy	   l_ground_force_vz	   l_ground_force_px	   l_ground_force_py	   l_ground_force_pz	     ground_torque_x	     ground_torque_y	     ground_torque_z	   l_ground_torque_x	   l_ground_torque_y	   l_ground_torque_z	
          1.53600000	         70.77513325	        603.61140367	        -21.03609229	          0.85881329	          0.00000000	          0.14103945	          0.00000000	          0.00000000	          0.00000000	          0.00000000	          0.00000000	          0.00000000	          0.00000000	          5.13803659	          0.00000000	          0.00000000	          0.00000000	          0.00000000	
          1.54000000	         76.18059324	        623.94860979	        -20.16785576	          0.85912863	          0.00000000	          0.14060391	          0.00000000	          0.00000000	          0.00000000	          0.00000000	          0.00000000	          0.00000000	          0.00000000	          5.19610071	          0.00000000	          0.00000000	          0.00000000	          0.00000000	
          1.54400000	         81.86159040	        643.85532283	        -19.64378711	          0.85944085	          0.00000000	          0.14020231	          0.00000000	          0.00000000	          0.00000000	          0.00000000	          0.00000000	          0.00000000	          0.00000000	          5.26096067	          0.00000000	          0.00000000	          0.00000000	          0.00000000	
          1.54800000	         87.77492662	        663.16583781	        -19.64882388	          0.85975401	          0.00000000	          0.13984727	          0.00000000	          0.00000000	          0.00000000	          0.00000000	          0.00000000	          0.00000000	          0.00000000	          5.34146122	          0.00000000	          0.00000000	          0.00000000	          0.00000000	
          1.55200000	         93.88680152	        681.73013108	        -20.27044984	          0.86006893	          0.00000000	          0.13954410	          0.00000000	          0.00000000	          0.00000000	          0.00000000	          0.00000000	          0.00000000	          0.00000000	          5.44084095	          0.00000000	          0.00000000	          0.00000000	          0.00000000	
          1.55600000	        100.17198308	        699.41852951	        -21.48926756	          0.86038076	          0.00000000	          0.13928712	          0.00000000	          0.00000000	          0.00000000	          0.00000000	          0.00000000	          0.00000000	          0.00000000	          5.55594999	          0.00000000	          0.00000000	          0.00000000	          0.00000000	
          1.56000000	        106.60709032	        716.12062044	        -23.18386441	          0.86068591	          0.00000000	          0.13906487	          0.00000000	          0.00000000	          0.00000000	          0.00000000	          0.00000000	          0.00000000	          0.00000000	          5.67794993	          0.00000000	          0.00000000	          0.00000000	          0.00000000	
          1.56400000	        113.16936196	        731.74107642	        -25.15010962	          0.86098904	          0.00000000	          0.13886630	          0.00000000	          0.00000000	          0.00000000	          0.00000000	          0.00000000	          0.00000000	          0.00000000	          5.79424452	          0.00000000	          0.00000000	          0.00000000	          0.00000000	
          1.56800000	        119.83802103	        746.18680968	        -27.13693993	          0.86129232	          0.00000000	          0.13868017	          0.00000000	          0.00000000	          0.00000000	          0.00000000	          0.00000000	          0.00000000	          0.00000000	          5.89109983	          0.00000000	          0.00000000	          0.00000000	          0.00000000	
          1.57200000	        126.58893615	        759.35027472	        -28.89603655	          0.86159284	          0.00000000	          0.13849915	          0.00000000	          0.00000000	          0.00000000	          0.00000000	          0.00000000	          0.00000000	          0.00000000	          5.95637538	          0.00000000	          0.00000000	          0.00000000	          0.00000000	
